<?xml version="1.0" standalone="no"?><!DOCTYPE svg PUBLIC "-//W3C//DTD SVG 1.1//EN" "http://www.w3.org/Graphics/SVG/1.1/DTD/svg11.dtd"><svg t="1547015174916" class="icon" style="" viewBox="0 0 1024 1024" version="1.1" xmlns="http://www.w3.org/2000/svg" p-id="1796" xmlns:xlink="http://www.w3.org/1999/xlink" width="200" height="200"><defs><style type="text/css"></style></defs><path d="M873.207 332.257c-24.267-96.42-84.772-177.662-170.182-228.653-57.832-34.526-123.786-52.807-190.705-52.807-130.52 0-253.129 69.591-320.046 181.511-50.988 85.41-65.742 185.572-41.474 281.992 18.813 74.832 59.646 140.248 116.73 189.741l-99.2 148.052c-11.012 18.385-14.111 39.869-8.98 60.61 5.24 20.742 18.175 38.16 36.561 49.172 12.399 7.38 26.617 11.328 40.938 11.328 6.628 0 13.257-0.853 19.671-2.454 20.737-5.239 38.375-18.388 49.921-37.842l83.378-157.674c39.018 13.574 80.173 20.633 121.755 20.633 130.517 0 253.126-69.59 320.044-181.402 51.1-85.522 65.85-185.679 41.589-282.207zM218.142 883.624l74.188-110.742c6.628 5.234 14.858 10.369 24.479 14.648l-61.571 116.511c-2.889 4.813-7.485 8.232-12.936 9.623a21.052 21.052 0 0 1-16.035-2.35 21.074 21.074 0 0 1-9.622-12.938c-1.389-5.449-0.639-11.012 1.497-14.752z m102.835-140.669c4.917 2.985 9.942 5.557 15.074 8.334l-0.108 0.321c-8.66-3.424-15.714-8.019-20.846-12.4l0.108-0.108c1.817 1.177 3.742 2.67 5.772 3.853zM207.988 499.869c-20.417-81.242-8.125-165.583 34.847-237.417 56.228-94.281 159.597-152.753 269.485-152.753 56.333 0 111.813 15.393 160.452 44.468 71.942 42.974 122.828 111.388 143.242 192.626 20.417 81.243 8.125 165.583-34.852 237.417-56.332 94.279-159.595 152.759-269.486 152.759-56.332 0-111.81-15.398-160.448-44.473-71.94-42.974-122.822-111.389-143.24-192.627z" p-id="1797"></path><path d="M699.714 599.064c7.584-8.122 7.16-20.943-1.072-28.748-8.122-7.485-20.949-7.062-28.648 1.066-33.24 35.597-78.25 59.116-126.779 66.167-30.783 4.597-61.358 2.46-91.075-6.09-10.583-3.102-21.915 2.992-25.121 13.893-2.993 10.693 3.099 21.917 13.896 25.126 23.092 6.621 46.821 10.049 70.659 10.049 12.399 0 25.124-0.961 37.628-2.778 57.617-8.453 111.065-36.35 150.512-78.685zM500.135 206.973c43.509-2.351 85.733 8.124 122.933 30.359 49.705 29.61 84.767 76.858 98.984 132.978C736.16 426.43 727.61 484.691 698 534.398c-5.772 9.62-2.565 22.13 6.842 27.686 3.103 1.924 6.844 2.988 10.479 2.988 7.051 0 13.787-3.74 17.423-9.829 35.274-58.902 45.432-128.169 28.646-194.765-16.783-66.706-58.469-122.72-117.481-157.995-44.146-26.403-94.604-38.91-146.017-36.024-5.452 0.322-10.37 2.675-14.002 6.736-3.637 4.061-5.454 9.193-5.132 14.643 0.319 5.453 2.884 10.692 7.056 14.217 4.166 3.635 9.725 5.346 14.321 4.918z" p-id="1798"></path></svg>