<?xml version="1.0" standalone="no"?><!DOCTYPE svg PUBLIC "-//W3C//DTD SVG 1.1//EN" "http://www.w3.org/Graphics/SVG/1.1/DTD/svg11.dtd"><svg t="1547015077356" class="icon" style="" viewBox="0 0 1024 1024" version="1.1" xmlns="http://www.w3.org/2000/svg" p-id="1417" xmlns:xlink="http://www.w3.org/1999/xlink" width="200" height="200"><defs><style type="text/css"></style></defs><path d="M761.041 948.741H181.875c-52.126 0-92.665-38.216-92.665-87.347V162.612c0-49.132 40.539-87.354 92.665-87.354h660.264c52.115 0 92.65 38.216 92.65 87.354v633.276c0 16.367-11.588 27.291-28.953 27.291-17.373 0-28.959-10.93-28.959-27.291V162.612c0-16.385-17.373-32.757-34.738-32.757H181.875c-17.378 0-34.744 16.378-34.744 32.757v698.782c0 16.381 17.372 32.756 34.744 32.756h579.166c17.371 0 28.953 10.917 28.953 27.292 0 16.381-11.582 27.299-28.953 27.299z" p-id="1418"></path><path d="M815.223 340.507H208.777c-20.213 0-33.692-12.702-33.692-31.759V181.717c0-19.054 13.479-31.758 33.692-31.758h606.445c20.213 0 33.691 12.704 33.691 31.758v127.031c0.001 19.057-13.477 31.759-33.69 31.759zM242.468 276.99h539.063v-63.516H242.468v63.516zM323.329 524.704h-87.596c-20.22 0-33.691-12.704-33.691-31.758v-50.814c0-19.053 13.471-31.758 33.691-31.758h94.332c20.213 0 33.691 12.705 33.691 31.758v50.814c-6.735 19.054-20.213 31.758-40.427 31.758zM559.17 524.704h-94.34c-20.213 0-33.691-12.704-33.691-31.758v-50.814c0-19.053 13.478-31.758 33.691-31.758h94.34c20.213 0 33.691 12.705 33.691 31.758v50.814c0 19.054-13.478 31.758-33.691 31.758zM788.268 524.704h-94.326c-20.219 0-33.691-12.704-33.691-31.758v-50.814c0-19.053 13.473-31.758 33.691-31.758h94.326c20.221 0 33.691 12.705 33.691 31.758v50.814c0 19.054-13.471 31.758-33.691 31.758zM323.329 696.199h-87.596c-20.22 0-33.691-12.704-33.691-31.758v-50.817c0-19.055 13.471-31.758 33.691-31.758h94.332c20.213 0 33.691 12.703 33.691 31.758v50.817c-6.735 19.054-20.213 31.758-40.427 31.758zM559.17 696.199h-94.34c-20.213 0-33.691-12.704-33.691-31.758v-50.817c0-19.055 13.478-31.758 33.691-31.758h94.34c20.213 0 33.691 12.703 33.691 31.758v50.817c0 19.054-13.478 31.758-33.691 31.758zM788.268 696.199h-94.326c-20.219 0-33.691-12.704-33.691-31.758v-50.817c0-19.055 13.473-31.758 33.691-31.758h94.326c20.221 0 33.691 12.703 33.691 31.758v50.817c0 19.054-13.471 31.758-33.691 31.758zM323.329 874.042h-87.596c-20.22 0-33.691-12.705-33.691-31.759v-50.811c0-19.06 13.471-31.759 33.691-31.759h94.332c20.213 0 33.691 12.699 33.691 31.759v50.811c-6.735 12.705-20.213 31.759-40.427 31.759zM559.17 874.042h-94.34c-20.213 0-33.691-12.705-33.691-31.759v-50.811c0-19.06 13.478-31.759 33.691-31.759h94.34c20.213 0 33.691 12.699 33.691 31.759v50.811c0 12.705-13.478 31.759-33.691 31.759zM788.268 874.042h-94.326c-20.219 0-33.691-12.705-33.691-31.759v-50.811c0-19.06 13.473-31.759 33.691-31.759h94.326c20.221 0 33.691 12.699 33.691 31.759v50.811c0 12.705-13.471 31.759-33.691 31.759z" p-id="1419"></path></svg>