<?xml version="1.0" standalone="no"?><!DOCTYPE svg PUBLIC "-//W3C//DTD SVG 1.1//EN" "http://www.w3.org/Graphics/SVG/1.1/DTD/svg11.dtd"><svg t="1547015295242" class="icon" style="" viewBox="0 0 1024 1024" version="1.1" xmlns="http://www.w3.org/2000/svg" p-id="2016" xmlns:xlink="http://www.w3.org/1999/xlink" width="200" height="200"><defs><style type="text/css"></style></defs><path d="M127.822 618.417c-15.849 23.47-24.207 48.769-24.207 74.842 0 123.505 184.378 216.379 408.385 216.379 11.871 0 21.493-9.622 21.493-21.493s-9.622-21.496-21.493-21.496c-203.333 0-365.396-81.635-365.396-173.39 0-17.154 5.606-34.173 16.831-50.771 6.646-9.829 4.062-23.198-5.774-29.838-9.831-6.652-23.199-4.07-29.839 5.767z m694.25 216.96c62.377-38.175 98.313-87.719 98.313-142.118 0-26.202-8.423-51.565-24.4-75.101-6.433-9.978-19.737-12.846-29.709-6.413-9.973 6.434-12.847 19.737-6.408 29.717 0.175 0.276 0.362 0.548 0.55 0.813 11.31 16.682 16.979 33.746 16.979 50.983 0 37.182-26.972 74.37-77.76 105.448-10.127 6.199-13.318 19.426-7.117 29.554 6.193 10.127 19.425 13.311 29.552 7.117z" p-id="2017"></path><path d="M127.822 424.972c-15.849 23.471-24.207 48.769-24.207 74.842 0 101.192 124.106 183.169 297.389 208.485 11.754 1.726 22.676-6.406 24.4-18.16 1.718-11.747-6.413-22.67-18.161-24.394-154.785-22.565-260.64-92.53-260.64-165.932 0-17.15 5.606-34.176 16.831-50.768 6.646-9.837 4.062-23.198-5.774-29.845-9.83-6.647-23.198-4.064-29.838 5.772z m694.25 216.962c62.377-38.177 98.313-87.721 98.313-142.12 0-26.202-8.423-51.565-24.4-75.1-6.433-9.976-19.737-12.847-29.709-6.41-9.973 6.433-12.847 19.737-6.408 29.712 0.175 0.275 0.362 0.546 0.55 0.814 11.31 16.679 16.979 33.745 16.979 50.983 0 37.182-26.972 74.37-77.76 105.448-10.127 6.199-13.318 19.428-7.117 29.554 6.193 10.128 19.425 13.311 29.552 7.119zM512 501.254c224.033 0 408.385-92.189 408.385-214.939 0-122.751-184.352-214.939-408.385-214.939s-408.385 92.188-408.385 214.939c0 122.749 184.352 214.939 408.385 214.939z m0-42.988c-203.333 0-365.396-81.032-365.396-171.951 0-90.92 162.063-171.951 365.396-171.951s365.396 81.031 365.396 171.951c0 90.918-162.063 171.951-365.396 171.951z m171.951 343.902V759.18h85.976c11.871 0 21.494-9.623 21.494-21.494 0-11.87-9.623-21.493-21.494-21.493h-55.582l49.285-49.284c8.247-8.538 8.009-22.146-0.529-30.395-8.325-8.04-21.533-8.04-29.864 0l-70.778 70.779-70.779-70.779c-8.538-8.247-22.146-8.008-30.394 0.529-8.041 8.325-8.041 21.533 0 29.865l49.285 49.284h-55.582c-11.871 0-21.495 9.623-21.495 21.493 0 11.871 9.624 21.494 21.495 21.494h85.975v42.988h-64.481c-11.871 0-21.493 9.623-21.493 21.494s9.622 21.493 21.493 21.493h64.481v85.977c0 11.87 9.624 21.493 21.495 21.493 11.87 0 21.493-9.623 21.493-21.493v-85.977h64.481c11.871 0 21.494-9.622 21.494-21.493s-9.623-21.494-21.494-21.494h-64.482z" p-id="2018"></path></svg>