<?xml version="1.0" standalone="no"?><!DOCTYPE svg PUBLIC "-//W3C//DTD SVG 1.1//EN" "http://www.w3.org/Graphics/SVG/1.1/DTD/svg11.dtd"><svg t="1547015090942" class="icon" style="" viewBox="0 0 1024 1024" version="1.1" xmlns="http://www.w3.org/2000/svg" p-id="1638" xmlns:xlink="http://www.w3.org/1999/xlink" width="200" height="200"><defs><style type="text/css"></style></defs><path d="M941.938 403.908c24.601-17.452 25.281-30.793 25.281-54.045V187.746c0-44.767-33.963-81.063-75.866-81.063h-758.7c-41.9 0-75.871 36.296-75.871 81.063v162.126c0 24.213 1.576 40.367 25.29 54.041 34.555 17.192 75.876 51.919 75.876 108.087 0 72.892-42.884 96.604-74.382 107.969-22.169 14.821-26.784 39.238-26.784 54.15v162.133c0 44.77 33.971 81.064 75.871 81.064h758.7c41.903 0 75.866-36.281 75.866-81.064V674.119c0-29.511-6.343-38.862-25.281-54.036-55.236-30.434-75.877-57.518-75.877-108.088 0-50.574 19.325-75.738 75.877-108.087z m-25.292 260.296v145.035c0 29.837-22.649 54.043-50.585 54.043H157.942c-27.936 0-50.582-24.206-50.582-54.043V664.204C166.166 641.861 208.526 582.492 208.526 512S166.171 382.131 107.36 359.796V214.761c0-29.845 22.646-54.041 50.582-54.041H866.06c27.936 0 50.585 24.196 50.585 54.041v145.035C857.838 382.131 815.477 441.503 815.477 512c0.01 70.492 42.361 129.872 101.169 152.204zM651.1 457.953h-95.476l103.638-118.976c4.484-5.235 4.484-13.721 0-18.959l-16.219-18.959c-4.478-5.238-11.741-5.238-16.219 0l-114.94 131.944-114.987-131.982c-4.441-5.194-11.652-5.194-16.092 0l-16.098 18.808c-4.445 5.194-4.445 13.614 0 18.81l103.948 119.314h-95.753c-6.983 0-12.646 6.056-12.646 13.512v27.026c0 7.465 5.657 13.514 12.646 13.514h113.805v54.043H372.903c-6.983 0-12.646 6.049-12.646 13.512v27.018c0 7.457 5.657 13.52 12.646 13.52h113.805v94.571c0 7.461 5.657 13.517 12.646 13.517h25.295c6.983 0 12.646-6.056 12.646-13.517v-94.571H651.1c6.982 0 12.646-6.063 12.646-13.52V579.56c0-7.463-5.664-13.512-12.646-13.512H537.295v-54.043H651.1c6.982 0 12.646-6.049 12.646-13.514v-27.026c0-7.456-5.664-13.507-12.646-13.512z" p-id="1639"></path></svg>