<?xml version="1.0" standalone="no"?><!DOCTYPE svg PUBLIC "-//W3C//DTD SVG 1.1//EN" "http://www.w3.org/Graphics/SVG/1.1/DTD/svg11.dtd"><svg t="1547015083997" class="icon" style="" viewBox="0 0 1024 1024" version="1.1" xmlns="http://www.w3.org/2000/svg" p-id="1527" xmlns:xlink="http://www.w3.org/1999/xlink" width="200" height="200"><defs><style type="text/css"></style></defs><path d="M512 252.637c178.376 0.279 322.761 145.112 322.476 323.495-0.272 178.384-145.112 322.756-323.489 322.483-178.383-0.285-322.762-145.118-322.482-323.502 0.204-129.633 77.897-246.588 197.322-297.024A322.043 322.043 0 0 1 512 252.637m0-64.841c-214.866 0-389.044 174.178-389.044 389.043 0 214.863 174.178 389.045 389.044 389.045 214.862 0 389.044-174.182 389.044-389.045 0-214.864-174.182-389.043-389.044-389.043zM641.682 58.115H382.318v64.841h259.363V58.115z" p-id="1528"></path><path d="M544.42 58.115h-64.841v194.522h64.841V58.115z m0 259.363h-64.841v213.519l64.841 64.842V317.478z m0 278.36v91.688l83.837 83.838 45.845-45.845L544.42 595.838z" p-id="1529"></path><path d="M479.579 530.996v91.688l64.841 64.841v-91.688l-64.841-64.841z" p-id="1530"></path></svg>