<?xml version="1.0" standalone="no"?><!DOCTYPE svg PUBLIC "-//W3C//DTD SVG 1.1//EN" "http://www.w3.org/Graphics/SVG/1.1/DTD/svg11.dtd"><svg t="1547015198630" class="icon" style="" viewBox="0 0 1024 1024" version="1.1" xmlns="http://www.w3.org/2000/svg" p-id="1906" xmlns:xlink="http://www.w3.org/1999/xlink" width="200" height="200"><defs><style type="text/css"></style></defs><path d="M338.774 246.291c33.379 0 64.677 13.557 88.287 38.034 23.609 24.569 36.545 57.142 36.545 91.88 0 34.736-13.026 67.31-36.545 91.88-23.609 24.57-54.907 38.032-88.287 38.032-33.379 0-64.677-13.557-88.286-38.032-23.61-24.57-36.545-57.144-36.545-91.88 0-34.738 13.026-67.311 36.545-91.88 23.609-24.477 54.907-38.034 88.286-38.034m0-60.248c-100.95 0-182.724 85.102-182.724 190.162 0 105.059 81.774 190.16 182.724 190.16 100.95 0 182.724-85.102 182.724-190.16 0-105.06-81.864-190.162-182.724-190.162z" p-id="1907"></path><path d="M599.744 837.957c-16.012 0-28.946-13.461-28.946-30.123 0-133.113-104.117-241.469-232.024-241.469S106.751 674.627 106.751 807.834c0 16.662-12.935 30.123-28.946 30.123-16.011 0-28.946-13.461-28.946-30.123 0-80.584 30.123-156.365 84.94-213.414 54.726-56.955 127.544-88.396 204.976-88.396s150.25 31.348 204.977 88.396c54.725 56.953 84.938 132.736 84.938 213.32-0.001 16.662-13.027 30.217-28.946 30.217zM946.195 332.336H711.006c-15.92 0-28.946-13.556-28.946-30.125s13.026-30.125 28.946-30.125h235.189c15.92 0 28.946 13.556 28.946 30.125s-13.026 30.125-28.946 30.125z m0 241.09H711.006c-15.92 0-28.946-13.557-28.946-30.125 0-16.566 13.026-30.123 28.946-30.123h235.189c15.92 0 28.946 13.557 28.946 30.123 0.001 16.568-13.026 30.125-28.946 30.125z m0 240.81H711.006c-15.92 0-28.946-13.557-28.946-30.125 0-16.57 13.026-30.125 28.946-30.125h235.189c15.92 0 28.946 13.555 28.946 30.125 0.001 16.569-13.026 30.125-28.946 30.125z" p-id="1908"></path></svg>